<svg xmlns="http://www.w3.org/2000/svg" width="128" height="128" viewBox="0 0 1024 1024">
  <path fill="#e73315" d="M831,333m3-183c30.713-.42,69.932-4.692,83,13,9.687,13.114,7,40.313,7,63V372c0,23.085,2.929,51.634-7,65-13.132,17.679-52.239,13.409-83,13V574c30.713-.42,69.932-4.692,83,13,9.687,13.114,7,40.313,7,63V796c0,23.085,2.929,51.634-7,65-13.132,17.679-52.239,13.409-83,13,0.313,36.721,8.838,104.988-13,121-16.042,11.76-100.252,5-129,5H343c-30.16,0-123.35,7.26-140-5-21.847-16.087-13.281-84.22-13-121-30.713.42-69.932,4.692-83-13-9.687-13.114-7-40.313-7-63V652c0-23.085-2.929-51.634,7-65,13.132-17.679,52.239-13.409,83-13V450c-30.713.42-69.932,4.692-83-13-9.687-13.114-7-40.313-7-63V228c0-23.085-2.929-51.634,7-65,13.132-17.679,52.239-13.409,83-13-0.313-36.721-8.838-104.988,13-121,16.042-11.762,100.252-5,129-5H681c30.16,0,123.35-7.261,140,5C842.847,45.087,834.281,113.22,834,150ZM260,94v56H764V94H260Zm92,109c-28.669,10.954-49.312,10.432-66,32-29.313,37.885-26.5,113.644,10,142,35.026,27.209,104.11,26.155,130-9-2.753-6.328-15.6-24.582-26-22l-18,12c-22.176,8.812-49.071-1.09-59-14-24.369-31.684-13.509-93.4,23-103,27.622-7.263,40.29,14.158,59,12l19-24C410.316,210.925,383.814,202.865,352,203Zm170,0c-14.6,5.8-26.961,5.7-38,14-21.6,16.234-28.452,64.968-4,84,16.143,12.564,56.742,13.16,66,32,5.092,8.339-.125,18.659-4,24-33.41,13.12-39.27-7.98-65-11-8.591,5.825-17.052,15.97-20,27,37.546,28.224,105.2,39.338,127-13,3.081-7.4,8.045-19.016,6-31-9.9-57.984-70.643-36.824-84-67-2.59-8.92,2.033-14.83,6-20,28.721-8.549,41.015,11.015,61,7l14-25C574.39,209.047,549.507,202.862,522,203Zm170,0c-14.6,5.8-26.961,5.7-38,14-21.6,16.234-28.452,64.968-4,84,16.143,12.564,56.742,13.16,66,32,5.092,8.339-.125,18.659-4,24-33.41,13.12-39.27-7.98-65-11-8.591,5.825-17.052,15.97-20,27,37.546,28.224,105.2,39.338,127-13,3.081-7.4,8.045-19.016,6-31-9.9-57.984-70.643-36.824-84-67-2.59-8.92,2.033-14.83,6-20,28.721-8.549,41.015,11.015,61,7l14-25C744.39,209.047,719.507,202.862,692,203ZM260,450V574H764V450H260ZM582,627c-14.6,5.8-26.961,5.7-38,14-21.6,16.234-28.452,64.968-4,84,16.143,12.564,56.742,13.16,66,32,5.092,8.339-.125,18.659-4,24-33.41,13.12-39.27-7.98-65-11-8.591,5.825-17.052,15.97-20,27,37.546,28.224,105.2,39.338,127-13,3.081-7.4,8.045-19.016,6-31-9.9-57.984-70.643-36.824-84-67-2.59-8.92,2.033-14.83,6-20,28.721-8.549,41.015,11.015,61,7l14-25C634.39,633.047,609.507,626.862,582,627Zm-156,2c0.432,29.027,4.855,133.374-5,148-8.134,12.072-23.916,6.036-38,8l-5,4c-0.782,8.3-4.63,25.683,0,29,8.58,4.135,28.041,4.16,39,2,57.392-11.311,53-59.964,53-128q-0.5-31.5-1-63H426ZM260,874v56H764V874H260Z"/>
</svg>
